<?xml version="1.0" encoding="utf-8"?>
<!-- Generator: Adobe Illustrator 24.1.1, SVG Export Plug-In . SVG Version: 6.00 Build 0)  -->
<svg version="1.1" id="Layer_1" xmlns="http://www.w3.org/2000/svg" xmlns:xlink="http://www.w3.org/1999/xlink" x="0px" y="0px"
	 viewBox="0 0 512 512" style="enable-background:new 0 0 512 512;" xml:space="preserve">
<g>
	<path d="M299.8,0C185.5,0,93,92.6,93,206.8c0,39.1,10.8,75.6,29.7,106.8L22.3,413.8l0.3,0.4C12,424.4,5.4,439,5.4,455.4
		c0,31.8,25.3,56.6,57,56.6c16.2,0,30.7-6.5,41-17l0.3,0.3l103.5-103.5c27.9,14,59.3,21.9,92.6,21.9c114.3,0,206.8-92.6,206.8-206.8
		C506.6,92.6,414,0,299.8,0z M301,332.3c-71.4,0-129.3-57.9-129.3-129.3c0-71.4,57.9-129.3,129.3-129.3
		c71.4,0,129.3,57.9,129.3,129.3C430.3,274.4,372.5,332.3,301,332.3z"/>
</g>
</svg>
